<svg xmlns="http://www.w3.org/2000/svg" xmlns:xlink="http://www.w3.org/1999/xlink" width="505.292" height="378.605" viewBox="0 0 505.292 378.605"><defs><filter id="a" x="314.273" y="0" width="159.625" height="158.696" filterUnits="userSpaceOnUse"><feOffset dy="2" input="SourceAlpha"/><feGaussianBlur stdDeviation="8.5" result="b"/><feFlood flood-opacity="0.098"/><feComposite operator="in" in2="b"/><feComposite in="SourceGraphic"/></filter><clipPath id="c"><rect width="377.982" height="345.32" fill="none" stroke="#041941" stroke-width="1"/></clipPath><clipPath id="d"><rect width="377.982" height="345.32" fill="#f7c758" stroke="#041941" stroke-width="1"/></clipPath><clipPath id="e"><rect width="86.055" height="72.086" fill="#f7c758" stroke="#041941" stroke-width="1"/></clipPath><clipPath id="f"><rect width="19.266" height="15.964" fill="#f7c758" stroke="#041941" stroke-width="1"/></clipPath><clipPath id="g"><rect width="14.77" height="8.716" fill="#f7c758" stroke="#041941" stroke-width="1"/></clipPath><clipPath id="h"><rect width="17.891" height="12.935" fill="#f7c758" stroke="#041941" stroke-width="1"/></clipPath><clipPath id="i"><rect width="29.725" height="8.532" fill="#f7c758" stroke="#041941" stroke-width="1"/></clipPath><clipPath id="j"><rect width="128.271" height="110" fill="none" stroke="#041941" stroke-width="1"/></clipPath><clipPath id="k"><rect width="52.419" height="59.555" fill="#f7c758" stroke="#041941" stroke-width="1"/></clipPath><clipPath id="l"><rect width="37.861" height="57.83" fill="none" stroke="#041941" stroke-width="1"/></clipPath><clipPath id="m"><rect width="416.982" height="345.32" fill="none" stroke="#041941" stroke-width="1"/></clipPath><clipPath id="n"><rect width="51.74" height="59.607" fill="#f7c758" stroke="#041941" stroke-width="1"/></clipPath><clipPath id="o"><rect width="7.464" height="12.451" fill="none" stroke="#041941" stroke-width="1"/></clipPath><filter id="p" x="0" y="190.484" width="167.963" height="166.963" filterUnits="userSpaceOnUse"><feOffset dy="2" input="SourceAlpha"/><feGaussianBlur stdDeviation="8.5" result="q"/><feFlood flood-opacity="0.098"/><feComposite operator="in" in2="q"/><feComposite in="SourceGraphic"/></filter></defs><g transform="translate(-358.237 -2477.423)"><path d="M167.843,0H335.686a167.843,167.843,0,1,1,0,335.686H167.843A167.843,167.843,0,0,1,167.843,0Z" transform="translate(360 2520.341)" fill="#e7f1fc"/><g transform="translate(692.032 2497.93)"><g transform="matrix(1, 0, 0, 1, -333.79, -20.51)" filter="url(#a)"><g transform="translate(339.77 23.5)" fill="#041941" stroke="#041941" stroke-width="1"><rect width="108.625" height="107.696" rx="10" stroke="none"/><rect x="0.5" y="0.5" width="107.625" height="106.696" rx="9.5" fill="none"/></g></g><g transform="translate(0)"><g transform="translate(0 0)" fill="#fff" stroke="#041941" stroke-width="1"><rect width="108.625" height="107.696" rx="10" stroke="none"/><rect x="0.5" y="0.5" width="107.625" height="106.696" rx="9.5" fill="none"/></g></g></g><g transform="translate(714.104 2527.261)"><path d="M1073.48,716.875a11.634,11.634,0,1,0-8.887.022c-7.635,2.751-13.818,12.239-12.385,23.255h33.714C1087.359,729.107,1081.141,719.6,1073.48,716.875Z" transform="translate(-1022.492 -694.5)" fill="#e7f1fc" stroke="#041941" stroke-miterlimit="10" stroke-width="1"/><path d="M1073.479,716.875a11.634,11.634,0,1,0-8.887.021c-7.635,2.752-13.818,12.239-12.385,23.255h33.714C1087.358,729.107,1081.141,719.6,1073.479,716.875Z" transform="translate(-1052 -694.5)" fill="#00183f" stroke="#00183f" stroke-miterlimit="10" stroke-width="1"/></g><g transform="translate(-35.426 16.245)"><path d="M249.764,332.994V211.617a13.392,13.392,0,0,1,2.518-7.811L290.769,150.2a6.358,6.358,0,0,0,1.2-3.708V91.862a20.736,20.736,0,1,1,41.47-.054v44.707a6.37,6.37,0,0,0,1.821,4.453l20.7,20.937,30.578,11.35c1.168,1.2,0,15.024,0,16.686l-10.9,110.181a6.416,6.416,0,0,1-4.65,6.147L258.075,339.14a6.467,6.467,0,0,1-8.311-6.147" transform="translate(251.393 2398.871)" fill="#dd6e63" stroke="#041941" stroke-width="1"/><g transform="translate(436.7 2469.755)"><path d="M121.639,20.231l3.825,19.58L285.829,97.425l4.222-18.377v0L121.644,20.231Z" transform="translate(1.142 0.19)" fill="#031a4a" stroke="#041941" stroke-width="1"/><g clip-path="url(#c)"><path d="M258.181,342.225l-19.693-3.13,3.647-130.862,42.6-60.624V92.5a23.607,23.607,0,0,1,9.931-19.474,22.58,22.58,0,0,1,10.619-3.949c11.352-1.13,22.434,6.753,25.321,18.716H303.652a11.581,11.581,0,0,0-11.584,11.582v50.068l-42.2,59.453Z" transform="translate(2.239 0.648)" fill="#121c36" stroke="#041941" stroke-width="1"/><path d="M258.181,342.225l-19.693-3.13,3.647-130.862,42.6-60.624V92.5a23.607,23.607,0,0,1,9.931-19.474,22.58,22.58,0,0,1,10.619-3.949c11.352-1.13,22.434,6.753,25.321,18.716H303.652a11.581,11.581,0,0,0-11.584,11.582v50.068l-42.2,59.453Z" transform="translate(2.239 0.648)" fill="#fff" stroke="#041941" stroke-width="0.5"/></g><g clip-path="url(#d)"><path d="M3.411,13.438,17.095,2.684a4.383,4.383,0,0,1,6.149.732l128.83,163.3L99.235,143a4.39,4.39,0,0,1-1.665-1.308L2.659,19.573a4.382,4.382,0,0,1,.752-6.135" transform="translate(0.016 0.016)" fill="#fff" stroke="#041941" stroke-width="1"/><line y1="6.367" x2="8.209" transform="translate(21.102 37.294)" fill="none" stroke="#041941" stroke-linecap="round" stroke-miterlimit="10" stroke-width="2"/><line y1="6.367" x2="8.209" transform="translate(38.672 59.579)" fill="none" stroke="#041941" stroke-linecap="round" stroke-miterlimit="10" stroke-width="2"/><line y1="6.367" x2="8.209" transform="translate(56.445 81.884)" fill="none" stroke="#041941" stroke-linecap="round" stroke-miterlimit="10" stroke-width="2"/><line y1="6.367" x2="8.209" transform="translate(74.279 103.605)" fill="none" stroke="#041941" stroke-linecap="round" stroke-miterlimit="10" stroke-width="2"/><line y1="6.367" x2="8.209" transform="translate(92.206 127.363)" fill="none" stroke="#041941" stroke-linecap="round" stroke-miterlimit="10" stroke-width="2"/><path d="M130.937,110.291l2.238,4.395a6.474,6.474,0,0,0,4.266-1.24,6.35,6.35,0,0,0,2.064-2.706l-2.589-4.038c-1.009.717-2.133,1.449-3.363,2.168-.9.526-1.774,1-2.615,1.418" transform="translate(1.229 1.002)" fill="#f7c758" stroke="#041941" stroke-width="1"/><path d="M130.937,116.038,152.9,164.913l14.22,5.162,3.67-17.247-12.018-15.872-16.883-27.707a7.847,7.847,0,0,1-4.221,6.7,8.076,8.076,0,0,1-6.733.092" transform="translate(1.229 1.026)" fill="#f7c758" stroke="#041941" stroke-width="1"/></g><g transform="translate(200.916 93.853)"><g clip-path="url(#e)"><path d="M199.047,92.98l14.5,1.743,3.395,7.339,28.349,7.156,4.954-14.311,14.311,2.753L260.7,110.87A37.417,37.417,0,0,1,273.584,122.7l1.7-.822,9.816.822v24.683l-12.488,17.678a37.931,37.931,0,0,0-2.282-19.518l11.56-6.88L201.8,108.114Z" transform="translate(-199.047 -92.98)" fill="#f7c758" stroke="#041941" stroke-width="1"/></g></g><g transform="translate(247.154 95.78)"><g clip-path="url(#f)"><path d="M244.855,109.2l15.412,1.651,3.853-13.212-14.31-2.752Z" transform="translate(-244.855 -94.889)" fill="#f7c758" stroke="#041941" stroke-width="1"/></g></g><g transform="translate(272.2 139.541)"><g clip-path="url(#g)"><path d="M281.228,138.244l3.211.275v8.441l-14.77-1.835Z" transform="translate(-269.668 -138.243)" fill="#f7c758" stroke="#041941" stroke-width="1"/></g></g><g transform="translate(200.916 93.853)"><g clip-path="url(#h)"><path d="M199.047,92.98l5.5,12.935,12.386-3.853-3.395-7.339Z" transform="translate(-199.047 -92.98)" fill="#f7c758" stroke="#041941" stroke-width="1"/></g></g><g transform="translate(236.696 90)"><g clip-path="url(#i)"><path d="M234.494,89.163l14.495,1.376,15.23,7.157-14.312-2.753Z" transform="translate(-234.494 -89.163)" fill="#f7c758" stroke="#041941" stroke-width="1"/></g></g><g transform="translate(155.488 90)"><g clip-path="url(#j)"><path d="M164.241,166.106l.88-6.438.495-3.624-11.574-4.128,5.788-19.266,12.392,4.954a79.431,79.431,0,0,1,17.615-22.845l-4.954-14.082,14.587-7.661,5.505,12.935a34.813,34.813,0,0,1,25.872-2.752l4.4-14.037,15.412,5.779-4.954,14.314a42.287,42.287,0,0,1,18.169,18.379l11.835-5.719,6.605,16.789-11.56,6.881A37.887,37.887,0,0,1,273.04,165.1l-24.056,34.061Z" transform="translate(-154.042 -89.163)" fill="#fff" stroke="#041941" stroke-width="1"/></g></g><g transform="translate(194.736 136.959)"><g clip-path="url(#k)"><path d="M245.343,165.467c0,16.447-11.739,29.777-26.21,29.777-.146,0-.294,0-.442-.009-14.28-.26-25.768-13.481-25.768-29.764,0-16.447,11.73-29.777,26.209-29.777a23.209,23.209,0,0,1,8.782,1.725c10.152,4.092,17.427,15.113,17.427,28.061" transform="translate(-192.924 -135.685)" fill="#f7c758" stroke="#041941" stroke-width="1"/></g></g><g transform="translate(209.293 138.684)"><g clip-path="url(#l)"><path d="M245.207,165.451c0,16.447-11.739,29.777-26.21,29.777-.146,0-.294,0-.442-.009A35.3,35.3,0,0,1,227.78,137.4c10.152,4.092,17.426,15.113,17.426,28.061" transform="translate(-207.346 -137.394)" fill="#121c36" stroke="#041941" stroke-width="1"/></g></g><g clip-path="url(#m)"><path d="M59.789,137.914l6.838-8.171a3.33,3.33,0,0,1,3.765-.966l179.478,70.017-4.718,9.651Z" transform="translate(0.561 1.207)" fill="#d66256" stroke="#041941" stroke-width="1"/><path d="M59.987,253.292V138.881a3.611,3.611,0,0,1,4.925-3.363l177.94,69.5a3.61,3.61,0,0,1,2.3,3.363V334.858a3.612,3.612,0,0,1-5.029,3.322L67.35,264.442a12.124,12.124,0,0,1-7.363-11.15" transform="translate(0.563 1.27)" fill="#f37f73" stroke="#041941" stroke-width="1"/><path d="M59.987,253.292V138.881a3.611,3.611,0,0,1,4.925-3.363l177.94,69.5a3.61,3.61,0,0,1,2.3,3.363V334.858a3.612,3.612,0,0,1-5.029,3.322L67.35,264.442A12.124,12.124,0,0,1,59.987,253.292Z" transform="translate(0.563 1.27)" fill="none" stroke="#041941" stroke-width="0.5"/><path d="M110.849,23.5a45.927,45.927,0,0,0-24.708,7.15,46.237,46.237,0,1,0,54.517,74.424.045.045,0,0,0,.033-.025A46.241,46.241,0,0,0,110.85,23.5m18.917,70.383a31.456,31.456,0,1,1,9.7-48.808A30.842,30.842,0,0,1,143.89,51.7a31.455,31.455,0,0,1-14.122,42.183" transform="translate(0.607 0.221)" fill="#f7c758" stroke="#041941" stroke-width="1"/><path d="M249.764,335.99V213.226a13.651,13.651,0,0,1,2.518-7.9l38.487-54.219a6.48,6.48,0,0,0,1.2-3.751V92.1a21.142,21.142,0,0,1,12.152-19.352,20.763,20.763,0,0,1,17.059-.065,21.1,21.1,0,0,1,12.259,19.362v45.218a6.481,6.481,0,0,0,1.821,4.5l38.56,39.9a6.483,6.483,0,0,1,1.821,4.5V302.742a6.479,6.479,0,0,1-4.65,6.217L258.075,342.207a6.481,6.481,0,0,1-8.311-6.217" transform="translate(2.345 0.666)" fill="#f37f73" stroke="#041941" stroke-width="1"/><path d="M322.578,93.486A10.367,10.367,0,1,1,312.209,83.12h0a10.366,10.366,0,0,1,10.366,10.366" transform="translate(2.834 0.78)" fill="#041941" stroke="#041941" stroke-width="1"/><path d="M115.869,19.815A45.989,45.989,0,0,0,86.092,30.682c-.017.017-.041.033-.059.05a46.236,46.236,0,0,0,50.45,76.709,44.336,44.336,0,0,0,4.125-2.334.043.043,0,0,0,.033-.025,46.23,46.23,0,0,0-24.774-85.266m13.85,74.1a31.455,31.455,0,1,1,17.425-28.15,31.455,31.455,0,0,1-17.425,28.15" transform="translate(0.654 0.186)" fill="#fff" stroke="#041941" stroke-width="1"/></g><g transform="translate(96.056 34.494)"><g clip-path="url(#n)"><path d="M146.9,65.631a31.433,31.433,0,0,1-17.425,28.15A31.45,31.45,0,0,0,95.159,41.6,31.448,31.448,0,0,1,146.9,65.629" transform="translate(-95.162 -34.173)" fill="#f7c758" stroke="#041941" stroke-width="1"/></g></g><g transform="translate(135.274 120.93)"><g clip-path="url(#o)"><path d="M134.389,119.838h0a.561.561,0,0,1,.67.235l6.229,10.174a1.328,1.328,0,0,1-.439,1.825,1.429,1.429,0,0,1-.129.07,1.191,1.191,0,0,1-1.586-.571l0-.008L134.07,120.6a.563.563,0,0,1,.277-.747l.042-.017" transform="translate(-134.016 -119.805)" fill="#fff" stroke="#041941" stroke-width="1"/></g></g></g></g><g transform="translate(32.3 -39.113)"><g transform="translate(-15 7)"><g transform="translate(360 2720.297)"><g transform="matrix(1, 0, 0, 1, -19.06, -210.76)" filter="url(#p)"><g transform="translate(25.5 213.98)" fill="#041941" stroke="#041941" stroke-width="1"><rect width="116.963" height="115.963" rx="10" stroke="none"/><rect x="0.5" y="0.5" width="115.963" height="114.963" rx="9.5" fill="none"/></g></g><g transform="translate(0 0)"><g transform="translate(0 0)" fill="#fff" stroke="#041941" stroke-width="1"><rect width="116.963" height="115.963" rx="10" stroke="none"/><rect x="0.5" y="0.5" width="115.963" height="114.963" rx="9.5" fill="none"/></g></g></g><line y1="63.735" transform="translate(449.044 2755.38) rotate(90)" fill="none" stroke="#041941" stroke-linecap="round" stroke-width="6"/><line y1="63.735" transform="translate(449.044 2779.057) rotate(90)" fill="none" stroke="#041941" stroke-linecap="round" stroke-width="6"/><line y1="63.735" transform="translate(449.044 2801.963) rotate(90)" fill="none" stroke="#041941" stroke-linecap="round" stroke-width="6"/><g transform="translate(407.81 2747.767) rotate(90)" fill="#f37f73" stroke="#041941" stroke-width="1"><circle cx="7.101" cy="7.101" r="7.101" stroke="none"/><circle cx="7.101" cy="7.101" r="6.601" fill="none"/></g><g transform="translate(443.315 2772.015) rotate(90)" fill="#f37f73" stroke="#041941" stroke-width="1"><circle cx="7.101" cy="7.101" r="7.101" stroke="none"/><circle cx="7.101" cy="7.101" r="6.601" fill="none"/></g><g transform="translate(417.177 2795.256) rotate(90)" fill="#f37f73" stroke="#041941" stroke-width="1"><circle cx="6.707" cy="6.707" r="6.707" stroke="none"/><circle cx="6.707" cy="6.707" r="6.207" fill="none"/></g></g></g></g></svg>